<svg width="32" height="32" viewBox="0 0 32 32" fill="none" xmlns="http://www.w3.org/2000/svg">
  <defs>
    <linearGradient id="portfolioGrad" x1="0%" y1="0%" x2="100%" y2="100%">
      <stop offset="0%" style="stop-color:#3B82F6;stop-opacity:1" />
      <stop offset="50%" style="stop-color:#6366F1;stop-opacity:1" />
      <stop offset="100%" style="stop-color:#8B5CF6;stop-opacity:1" />
    </linearGradient>
    <filter id="shadow" x="-20%" y="-20%" width="140%" height="140%">
      <feDropShadow dx="0" dy="2" stdDeviation="2" flood-color="#000000" flood-opacity="0.3"/>
    </filter>
  </defs>

  <!-- Background circle -->
  <circle cx="16" cy="16" r="14" fill="url(#portfolioGrad)" filter="url(#shadow)"/>

  <!-- Modern 'AS' monogram -->
  <g fill="white" font-family="Arial, sans-serif" font-weight="bold">
    <!-- Letter A -->
    <path d="M8 24V8h2l4 12h-1.5l-1-3H9l-1 3H6.5L8 24z M9.5 15h2l-1-3-1 3z" fill="white"/>
    <!-- Letter S -->
    <path d="M18 10c0-1 1-2 2-2h3c1 0 2 1 2 2v1h-1.5v-1c0-.3-.2-.5-.5-.5h-3c-.3 0-.5.2-.5.5s.2.5.5.5h3c1 0 2 1 2 2v3c0 1-1 2-2 2h-3c-1 0-2-1-2-2v-1h1.5v1c0 .3.2.5.5.5h3c.3 0 .5-.2.5-.5s-.2-.5-.5-.5h-3c-1 0-2-1-2-2v-3z" fill="white"/>
  </g>

  <!-- Subtle tech elements -->
  <circle cx="6" cy="6" r="1" fill="white" opacity="0.6"/>
  <circle cx="26" cy="6" r="1" fill="white" opacity="0.6"/>
  <circle cx="6" cy="26" r="1" fill="white" opacity="0.6"/>
  <circle cx="26" cy="26" r="1" fill="white" opacity="0.6"/>
</svg>
